<?xml version="1.0" standalone="no"?>
<!DOCTYPE svg PUBLIC "-//W3C//DTD SVG 20010904//EN"
 "http://www.w3.org/TR/2001/REC-SVG-20010904/DTD/svg10.dtd">
<svg version="1.0" xmlns="http://www.w3.org/2000/svg"
 width="320.000000pt" height="320.000000pt" viewBox="0 0 320.000000 320.000000"
 preserveAspectRatio="xMidYMid meet">

<g transform="translate(0.000000,320.000000) scale(0.100000,-0.100000)"
fill="#000000" stroke="none">
<path d="M1578 2559 c-11 -6 -18 -22 -18 -39 0 -22 -5 -29 -22 -32 -21 -3 -23
-9 -26 -75 -2 -52 -7 -73 -16 -73 -31 0 -138 -65 -179 -109 -94 -101 -120
-195 -111 -406 l6 -140 -23 -10 c-31 -13 -39 -73 -13 -92 14 -10 110 -13 440
-13 377 0 424 2 439 16 23 23 16 76 -12 88 -20 10 -21 17 -25 200 -3 187 -4
192 -33 251 -48 100 -141 179 -257 218 -15 5 -18 19 -18 77 0 62 -2 71 -17 68
-13 -2 -19 5 -21 22 -7 51 -52 74 -94 49z m57 -44 c0 -23 -34 -33 -45 -14 -13
20 1 40 24 37 13 -2 21 -10 21 -23z m45 -107 l0 -53 -67 1 -68 2 -3 37 c-5 60
0 65 73 65 l65 0 0 -52z m0 -113 l0 -35 -70 0 -70 0 0 29 c0 35 8 39 83 40
l57 1 0 -35z m-168 -22 l3 -38 98 -3 97 -3 0 42 c0 41 0 41 30 35 44 -8 132
-67 167 -112 73 -93 77 -110 81 -321 l4 -193 -375 0 -375 0 -7 135 c-12 212
19 319 117 411 45 42 117 83 145 84 6 0 13 -17 15 -37z m526 -645 l-3 -23
-422 -3 -423 -2 0 25 0 25 426 0 425 0 -3 -22z"/>
<path d="M1596 2131 c-10 -20 -35 -63 -56 -96 -45 -69 -66 -139 -56 -180 4
-15 22 -43 41 -62 28 -28 40 -33 82 -33 61 0 109 28 129 76 20 47 12 81 -39
174 -22 41 -50 94 -62 116 l-22 42 -17 -37z m125 -195 c14 -52 4 -97 -27 -127
l-26 -24 21 35 c25 41 27 91 6 151 -13 39 -13 42 0 24 9 -11 20 -37 26 -59z"/>
<path d="M702 1348 c-22 -22 -12 -47 28 -73 22 -14 40 -29 40 -34 0 -14 -29
-22 -56 -15 -18 5 -24 2 -24 -10 0 -20 68 -22 95 -3 28 21 13 59 -30 80 -42
20 -42 42 0 42 16 1 30 6 33 13 5 16 -70 16 -86 0z"/>
<path d="M830 1297 c0 -75 16 -97 73 -97 49 0 67 28 67 102 0 45 -3 58 -15 58
-11 0 -15 -13 -15 -54 0 -36 -5 -60 -16 -70 -37 -38 -64 -10 -64 66 0 45 -3
58 -15 58 -12 0 -15 -14 -15 -63z"/>
<path d="M1010 1280 l0 -80 51 0 c57 0 66 23 11 28 l-32 3 0 65 c0 50 -3 64
-15 64 -12 0 -15 -16 -15 -80z"/>
<path d="M1110 1351 c0 -5 12 -11 26 -13 26 -3 27 -5 28 -68 1 -51 4 -65 16
-65 12 0 16 15 18 68 3 64 4 67 27 67 14 0 25 5 25 10 0 6 -30 10 -70 10 -38
0 -70 -4 -70 -9z"/>
<path d="M1302 1333 c-5 -16 -19 -52 -31 -80 -17 -45 -18 -53 -6 -53 9 0 21
11 27 25 8 18 19 25 40 25 21 0 31 -6 38 -25 5 -14 16 -25 24 -25 11 0 9 16
-12 80 -22 68 -30 80 -48 80 -15 0 -25 -9 -32 -27z m47 -50 c1 -14 -25 -18
-32 -5 -3 4 0 18 5 32 10 24 11 24 18 5 5 -11 9 -26 9 -32z"/>
<path d="M1430 1280 c0 -63 3 -80 15 -80 10 0 15 15 17 58 l3 57 33 -57 c23
-39 40 -58 53 -58 17 0 19 8 19 80 0 63 -3 80 -15 80 -10 0 -15 -15 -17 -57
l-3 -58 -33 58 c-22 39 -38 57 -52 57 -18 0 -20 -7 -20 -80z"/>
<path d="M1680 1342 c-17 -14 -23 -29 -23 -62 0 -57 29 -82 87 -78 23 2 39 7
36 13 -3 6 -14 9 -24 7 -32 -4 -66 25 -66 58 0 37 25 62 59 58 14 -2 28 2 31
7 10 19 -75 17 -100 -3z"/>
<path d="M1820 1280 l0 -80 51 0 c36 0 49 4 46 13 -2 6 -18 11 -36 11 -26 -2
-31 1 -31 22 0 20 5 24 30 24 17 0 30 5 30 10 0 6 -13 10 -30 10 -25 0 -30 4
-30 25 0 22 4 25 36 25 21 0 33 4 29 10 -3 6 -26 10 -51 10 l-44 0 0 -80z"/>
<path d="M1950 1280 c0 -63 3 -80 15 -80 10 0 15 15 17 58 l3 57 33 -57 c23
-39 40 -58 53 -58 17 0 19 8 19 80 0 63 -3 80 -15 80 -10 0 -15 -15 -17 -57
l-3 -58 -33 58 c-22 39 -38 57 -52 57 -18 0 -20 -7 -20 -80z"/>
<path d="M2110 1350 c0 -5 11 -10 25 -10 24 0 25 -2 25 -70 0 -55 3 -70 15
-70 11 0 15 16 17 68 3 65 4 67 31 70 55 7 25 22 -43 22 -40 0 -70 -4 -70 -10z"/>
<path d="M2270 1280 c0 -64 3 -80 15 -80 10 0 15 10 15 30 0 17 5 30 11 30 6
0 24 -13 39 -30 15 -16 35 -30 44 -30 23 0 20 9 -10 37 -20 18 -24 27 -15 36
15 15 14 60 -1 75 -7 7 -31 12 -55 12 l-43 0 0 -80z m68 51 c21 -13 10 -46
-16 -49 -19 -3 -22 1 -22 27 0 31 13 39 38 22z"/>
<path d="M2430 1280 l0 -80 56 0 c64 0 73 23 10 28 -49 4 -48 35 2 40 42 4 41
20 0 24 -25 2 -33 8 -33 23 0 15 8 21 33 23 51 5 37 22 -18 22 l-50 0 0 -80z"/>
<path d="M1132 1113 c263 -2 693 -2 955 0 263 1 48 2 -477 2 -525 0 -740 -1
-478 -2z"/>
<path d="M1010 930 l0 -60 35 0 c19 0 35 5 35 10 0 6 -13 10 -30 10 -20 0 -30
5 -30 15 0 9 9 15 25 15 14 0 25 5 25 10 0 6 -11 10 -25 10 -16 0 -25 6 -25
15 0 10 10 15 30 15 17 0 30 5 30 10 0 6 -16 10 -35 10 l-35 0 0 -60z"/>
<path d="M1100 930 c0 -61 19 -87 21 -27 0 29 1 30 9 10 5 -13 13 -23 18 -23
5 0 14 10 20 23 10 21 11 20 11 -10 2 -60 21 -34 21 27 0 67 -12 77 -31 25 -7
-19 -16 -35 -20 -35 -4 0 -13 16 -20 35 -19 52 -29 43 -29 -25z"/>
<path d="M1272 933 c-20 -55 -21 -86 -1 -50 12 21 48 22 55 2 4 -8 10 -15 14
-15 5 0 0 27 -12 60 -11 33 -23 60 -28 60 -4 0 -17 -26 -28 -57z m38 -3 c0
-11 -4 -20 -10 -20 -5 0 -10 9 -10 20 0 11 5 20 10 20 6 0 10 -9 10 -20z"/>
<path d="M1360 930 l0 -60 40 0 c22 0 40 5 40 10 0 6 -13 10 -30 10 -29 0 -30
1 -30 50 0 28 -4 50 -10 50 -6 0 -10 -27 -10 -60z"/>
<path d="M1450 941 c0 -54 15 -74 52 -69 18 2 24 12 31 46 5 24 5 51 1 60 -6
12 -10 1 -13 -33 -5 -41 -9 -50 -26 -50 -17 0 -20 8 -23 48 -4 62 -22 61 -22
-2z"/>
<path d="M1606 968 c-8 -13 -13 -32 -11 -43 2 -11 4 -26 4 -32 1 -18 49 -27
66 -13 17 14 20 63 5 91 -14 26 -46 24 -64 -3z m49 -38 c0 -28 -4 -35 -20 -35
-13 0 -21 8 -23 23 -5 34 5 54 25 50 13 -2 18 -13 18 -38z"/>
<path d="M1700 930 c0 -33 4 -60 10 -60 6 0 10 11 10 25 0 14 5 25 10 25 6 0
16 -11 22 -25 6 -14 15 -25 20 -25 11 0 10 7 -2 30 -7 14 -7 25 2 39 16 26 -5
51 -43 51 -29 0 -29 -1 -29 -60z m60 25 c0 -8 -9 -15 -20 -15 -11 0 -20 7 -20
15 0 8 9 15 20 15 11 0 20 -7 20 -15z"/>
<path d="M1790 980 c0 -5 7 -10 15 -10 11 0 15 -12 15 -51 0 -27 3 -48 8 -46
4 3 7 26 6 51 -1 38 2 46 18 46 10 0 18 5 18 10 0 6 -18 10 -40 10 -22 0 -40
-4 -40 -10z"/>
<path d="M1885 954 c-8 -21 -18 -49 -21 -63 -5 -24 -4 -25 9 -8 18 21 35 22
59 0 23 -20 23 -10 0 49 -24 64 -28 66 -47 22z m34 -36 c1 -5 -6 -8 -15 -8
-11 0 -14 5 -10 16 3 9 6 21 7 27 0 12 17 -20 18 -35z"/>
<path d="M1970 932 l0 -62 35 0 c19 0 35 5 35 10 0 6 -11 10 -25 10 -17 0 -25
6 -26 18 -1 9 -2 29 -3 44 -2 55 -16 39 -16 -20z"/>
<path d="M2030 978 c1 -7 7 -24 15 -38 8 -14 15 -36 16 -50 1 -23 2 -23 8 5 4
17 15 45 25 63 9 18 12 32 6 32 -6 0 -15 -12 -21 -27 l-11 -28 -14 28 c-16 29
-24 34 -24 15z"/>
<path d="M2131 976 c-17 -21 -10 -87 12 -100 22 -14 51 3 55 33 3 21 -22 40
-36 26 -4 -4 -1 -10 6 -12 19 -7 14 -33 -7 -33 -22 0 -35 30 -26 60 7 21 30
27 40 10 4 -6 11 -8 16 -4 14 8 -9 34 -31 34 -10 0 -23 -6 -29 -14z"/>
<path d="M2210 983 c1 -5 7 -19 15 -33 8 -14 14 -37 15 -52 0 -16 5 -28 10
-28 6 0 10 12 10 28 1 15 7 38 15 52 17 29 18 40 7 40 -5 0 -15 -12 -22 -27
l-13 -28 -9 28 c-9 24 -29 39 -28 20z"/>
</g>
</svg>
